
<svg version="1.1" id="Layer_2" xmlns="http://www.w3.org/2000/svg" xmlns:xlink="http://www.w3.org/1999/xlink" x="0px" y="0px"
	 viewBox="0 0 25 25" style="enable-background:new 0 0 25 25;" xml:space="preserve">
<style type="text/css">
	.st0{fill:#FFB3FF;}
</style>
<path d="M12.8,11.6v13.2c3.7-0.4,6.6-3.5,6.6-7.3h0.7c0.4,0,0.7,0.3,0.7,0.7v0.7c0,0.4,0.3,0.7,0.7,0.7c0.4,0,0.7-0.3,0.7-0.7v-0.7
	c0-1.2-1-2.2-2.2-2.2h-0.7v-1.5h2.2c0.4,0,0.7-0.3,0.7-0.7c0-0.4-0.3-0.7-0.7-0.7h-2.2v-1.5H12.8z"/>
<path d="M22.3,9.4V8.7c0-0.4-0.3-0.7-0.7-0.7c-0.4,0-0.7,0.3-0.7,0.7v0.7c0,0.4-0.3,0.7-0.7,0.7h-0.7v1.5h0.7
	C21.4,11.6,22.3,10.6,22.3,9.4z"/>
<path d="M4,10.1c-0.4,0-0.7-0.3-0.7-0.7V8.7c0-0.4-0.3-0.7-0.7-0.7c-0.4,0-0.7,0.3-0.7,0.7v0.7c0,1.2,1,2.2,2.2,2.2h0.7v-1.5H4z"/>
<path d="M4.7,13.1H2.5c-0.4,0-0.7,0.3-0.7,0.7c0,0.4,0.3,0.7,0.7,0.7h2.2V16H4c-1.2,0-2.2,1-2.2,2.2v0.7c0,0.4,0.3,0.7,0.7,0.7
	c0.4,0,0.7-0.3,0.7-0.7v-0.7c0-0.4,0.3-0.7,0.7-0.7h0.7c0,3.8,2.9,6.9,6.6,7.3V11.6H4.7V13.1z"/>
<path class="st0" d="M10.6,8.2C10.6,8.2,10.6,8.2,10.6,8.2c0.2,0.2,0.5,0.2,0.7,0l3-3c0,0,0,0,0,0c0.2-0.2,0.2-0.5,0-0.7
	c0,0,0,0,0,0c-0.2-0.2-0.5-0.2-0.7,0l-2.6,2.6L9.8,6.1c-0.2-0.2-0.5-0.2-0.7,0c-0.2,0.2-0.2,0.5,0,0.7L10.6,8.2z"/>
<path d="M7.8,11.3h8.8c1.8,0,3.3-1.4,3.3-3.2c0-1.6-1.2-2.9-2.8-3.1c-0.2-2.5-2.4-4.5-5.1-4.5c-1.3,0-2.6,0.5-3.5,1.3
	C7.6,2.5,7.1,3.3,6.9,4.2C5.3,4.5,4,6,4,7.7C4,9.7,5.7,11.3,7.8,11.3z M7.5,5.1l0.4,0V4.6c0-0.6,0.4-1.4,1.1-2v0
	c0.8-0.7,1.8-1.1,2.9-1.1c2.3,0,4.1,1.8,4.1,4V6h0.5c1.3,0,2.3,1,2.3,2.2c0,1.2-1,2.2-2.3,2.2H7.8C6.2,10.4,5,9.2,5,7.7
	C5,6.4,6.1,5.2,7.5,5.1z"/>
</svg>
